<?xml version="1.0" standalone="no"?>
<!DOCTYPE svg PUBLIC "-//W3C//DTD SVG 20010904//EN"
 "http://www.w3.org/TR/2001/REC-SVG-20010904/DTD/svg10.dtd">
<svg version="1.0" xmlns="http://www.w3.org/2000/svg"
 width="16.000000pt" height="16.000000pt" viewBox="0 0 16.000000 16.000000"
 preserveAspectRatio="xMidYMid meet">
<metadata>
Created by potrace 1.11, written by Peter Selinger 2001-2013
</metadata>
<g transform="translate(0.000000,16.000000) scale(0.001600,-0.001600)"
fill="#000000" stroke="none">
<path d="M2716 6449 c-165 -22 -370 -93 -486 -171 -98 -65 -272 -218 -346
-304 -152 -177 -249 -380 -304 -639 -27 -126 -38 -426 -21 -560 36 -279 109
-480 249 -690 66 -98 120 -159 227 -255 141 -127 277 -192 524 -254 l181 -46
208 0 c375 0 515 26 799 151 159 70 234 109 318 167 230 157 272 193 627 523
l270 251 62 -59 c33 -33 88 -84 120 -114 33 -30 67 -61 75 -69 385 -362 625
-546 876 -673 133 -66 241 -101 441 -141 174 -35 185 -36 405 -36 221 0 228 1
376 35 157 36 334 105 438 170 69 44 222 175 271 232 22 26 84 125 137 220 89
158 100 185 141 330 56 197 66 270 66 490 0 354 -61 568 -237 836 -115 175
-380 416 -543 495 -30 14 -187 69 -253 87 -118 34 -468 46 -679 24 -199 -21
-420 -116 -738 -318 -178 -113 -614 -466 -894 -723 -55 -51 -76 -58 -97 -31
-55 66 -552 490 -678 577 -31 22 -105 76 -166 121 -135 100 -238 164 -375 232
-108 53 -328 124 -441 143 -76 12 -455 11 -553 -1z m526 -585 c116 -22 223
-65 393 -156 200 -108 318 -188 579 -392 120 -94 255 -199 300 -234 44 -34 82
-67 84 -72 2 -6 -11 -22 -30 -37 -18 -16 -65 -57 -103 -93 -39 -36 -108 -99
-155 -140 -46 -41 -109 -99 -140 -127 -59 -56 -305 -237 -405 -297 -95 -57
-309 -143 -440 -176 -207 -53 -474 -51 -650 5 -127 40 -290 162 -398 298 -66
83 -98 147 -132 263 -63 217 -34 555 62 723 166 290 352 418 663 455 64 8 291
-5 372 -20z m3885 16 c40 -5 80 -14 90 -19 10 -6 68 -33 128 -61 91 -42 122
-62 178 -118 76 -75 153 -174 187 -242 125 -247 134 -620 22 -854 -21 -45 -45
-88 -53 -96 -8 -8 -26 -33 -41 -55 -15 -22 -56 -70 -90 -106 -76 -81 -188
-142 -353 -191 -107 -32 -114 -33 -290 -32 -219 1 -325 20 -500 89 -201 79
-288 132 -527 317 -119 92 -548 481 -548 497 0 15 568 456 712 552 113 76 205
127 362 201 208 97 238 107 376 121 74 8 278 6 347 -3z"/>
</g>
</svg>
